<?xml version="1.0" encoding="UTF-8"?>
<svg id="logosandtypes_com" data-name="logosandtypes com" xmlns="http://www.w3.org/2000/svg" viewBox="0 0 150 150">
  <defs>
    <style>
      .cls-1 {
        fill: #009845;
      }

      .cls-2 {
        fill: none;
      }

      .cls-3 {
        fill: #54565a;
      }
    </style>
  </defs>
  <path class="cls-2" d="M0,0H150V150H0V0Z"/>
  <path class="cls-3" d="M108.92,117.18c-9.36,7.42-20.96,11.45-32.9,11.43-29.2,.05-52.89-23.63-52.89-52.89,0-12.58,4.37-24.11,11.67-33.19-.89-5.46-3.96-8.87-9.7-9.75-10.17,12-15.73,27.22-15.71,42.94,0,36.8,29.83,66.62,66.62,66.62,16.19,0,31.03-5.76,42.56-15.37,2.76-1.86-6.29-12.06-9.66-9.8Z"/>
  <path class="cls-1" d="M129.47,138.94h18.35l-19.79-21.57c9.47-11.81,14.63-26.5,14.61-41.64,0-36.79-29.83-66.62-66.62-66.62-19.64-.01-38.28,8.66-50.92,23.68l9.7,9.75c10.04-12.51,25.22-19.78,41.26-19.74,29.25,0,52.93,23.68,52.93,52.94,0,16.81-7.83,31.8-20.03,41.45l9.08,9.13,.38,.43,.1,.1,10.95,12.1Z"/>
</svg>